<svg width="522" height="522" viewBox="0 0 522 522" fill="none" xmlns="http://www.w3.org/2000/svg">
<g opacity="0.5">
<path fill-rule="evenodd" clip-rule="evenodd" d="M335.294 170.324C337.744 166.082 335.758 162.642 330.859 162.642C325.96 162.642 320.003 166.082 317.554 170.324L306.231 189.936C257.698 192.191 201.079 224.446 173.84 265.068H153.453C148.554 265.068 142.597 268.507 140.148 272.75C137.698 276.992 139.684 280.432 144.583 280.432H165.185C147.09 320.135 166.614 351.388 211.851 353.569C211.578 353.935 211.33 354.309 211.11 354.69L199.283 375.175C196.834 379.418 198.819 382.857 203.718 382.857C208.617 382.857 214.574 379.418 217.024 375.175L228.851 354.69C229.184 354.113 229.435 353.552 229.607 353.011C275.937 348.145 327.783 317.671 353.941 279.605C354.839 280.134 356.028 280.432 357.47 280.432H381.124C386.023 280.432 391.98 276.992 394.43 272.75C396.879 268.507 394.893 265.068 389.994 265.068H366.34C364.972 265.068 363.521 265.336 362.087 265.815C381.329 226.92 364.886 195.537 323.639 190.512L335.294 170.324ZM286.464 233.34C261.97 233.34 232.185 250.537 219.937 271.75C207.69 292.963 217.618 310.159 242.113 310.159C266.608 310.159 296.393 292.963 308.64 271.75C320.888 250.537 310.959 233.34 286.464 233.34Z" fill="url(#paint0_linear_32_22)"/>
</g>
<path fill-rule="evenodd" clip-rule="evenodd" d="M323.467 158.497C325.917 154.254 323.931 150.815 319.032 150.815C314.133 150.815 308.176 154.254 305.727 158.497L293.9 178.982C293.831 179.101 293.766 179.219 293.704 179.337C246.423 182.971 192.473 214.119 165.685 253.249C165.553 253.243 165.418 253.241 165.28 253.241H141.626C136.727 253.241 130.77 256.68 128.321 260.922C125.871 265.165 127.857 268.604 132.756 268.604H156.41C156.547 268.604 156.685 268.602 156.824 268.596C138.429 307.726 156.412 338.874 199.497 342.508C199.423 342.626 199.352 342.744 199.283 342.863L187.456 363.348C185.007 367.59 186.992 371.03 191.891 371.03C196.79 371.03 202.747 367.59 205.197 363.348L217.024 342.863C217.092 342.744 217.157 342.626 217.219 342.508C264.5 338.874 318.45 307.726 345.238 268.596C345.371 268.602 345.506 268.604 345.643 268.604H369.297C374.196 268.604 380.153 265.165 382.603 260.922C385.052 256.68 383.066 253.241 378.167 253.241H354.513C354.376 253.241 354.238 253.243 354.099 253.249C372.494 214.119 354.511 182.971 311.426 179.337C311.5 179.219 311.571 179.101 311.64 178.982L323.467 158.497ZM277.637 222.513C253.143 222.513 223.357 239.71 211.11 260.923C198.863 282.136 208.791 299.332 233.286 299.332C257.781 299.332 287.566 282.136 299.813 260.923C312.06 239.71 302.132 222.513 277.637 222.513Z" fill="url(#paint1_linear_32_22)"/>
<g opacity="0.7" filter="url(#filter0_f_32_22)">
<path fill-rule="evenodd" clip-rule="evenodd" d="M323.467 158.497C325.917 154.254 323.931 150.815 319.032 150.815C314.133 150.815 308.176 154.254 305.727 158.497L293.9 178.982C293.831 179.101 293.766 179.219 293.704 179.337C246.423 182.971 192.473 214.119 165.685 253.249C165.553 253.243 165.418 253.241 165.28 253.241H141.626C136.727 253.241 130.77 256.68 128.321 260.922C125.871 265.165 127.857 268.604 132.756 268.604H156.41C156.547 268.604 156.685 268.602 156.824 268.596C138.429 307.726 156.412 338.874 199.497 342.508C199.423 342.626 199.352 342.744 199.283 342.863L187.456 363.348C185.007 367.59 186.992 371.03 191.891 371.03C196.79 371.03 202.747 367.59 205.197 363.348L217.024 342.863C217.092 342.744 217.157 342.626 217.219 342.508C264.5 338.874 318.45 307.726 345.238 268.596C345.371 268.602 345.506 268.604 345.643 268.604H369.297C374.196 268.604 380.153 265.165 382.603 260.922C385.052 256.68 383.066 253.241 378.167 253.241H354.513C354.376 253.241 354.238 253.243 354.099 253.249C372.494 214.119 354.511 182.971 311.426 179.337C311.5 179.219 311.571 179.101 311.64 178.982L323.467 158.497ZM277.637 222.513C253.143 222.513 223.357 239.71 211.11 260.923C198.863 282.136 208.791 299.332 233.286 299.332C257.781 299.332 287.566 282.136 299.813 260.923C312.06 239.71 302.132 222.513 277.637 222.513Z" fill="url(#paint2_linear_32_22)"/>
</g>
<g opacity="0.3" filter="url(#filter1_f_32_22)">
<path fill-rule="evenodd" clip-rule="evenodd" d="M323.467 158.497C325.917 154.254 323.931 150.815 319.032 150.815C314.133 150.815 308.176 154.254 305.727 158.497L293.9 178.982C293.831 179.101 293.766 179.219 293.704 179.337C246.423 182.971 192.473 214.119 165.685 253.249C165.553 253.243 165.418 253.241 165.28 253.241H141.626C136.727 253.241 130.77 256.68 128.321 260.922C125.871 265.165 127.857 268.604 132.756 268.604H156.41C156.547 268.604 156.685 268.602 156.824 268.596C138.429 307.726 156.412 338.874 199.497 342.508C199.423 342.626 199.352 342.744 199.283 342.863L187.456 363.348C185.007 367.59 186.992 371.03 191.891 371.03C196.79 371.03 202.747 367.59 205.197 363.348L217.024 342.863C217.092 342.744 217.157 342.626 217.219 342.508C264.5 338.874 318.45 307.726 345.238 268.596C345.371 268.602 345.506 268.604 345.643 268.604H369.297C374.196 268.604 380.153 265.165 382.603 260.922C385.052 256.68 383.066 253.241 378.167 253.241H354.513C354.376 253.241 354.238 253.243 354.099 253.249C372.494 214.119 354.511 182.971 311.426 179.337C311.5 179.219 311.571 179.101 311.64 178.982L323.467 158.497ZM277.637 222.513C253.143 222.513 223.357 239.71 211.11 260.923C198.863 282.136 208.791 299.332 233.286 299.332C257.781 299.332 287.566 282.136 299.813 260.923C312.06 239.71 302.132 222.513 277.637 222.513Z" fill="url(#paint3_linear_32_22)"/>
</g>
<defs>
<filter id="filter0_f_32_22" x="-22.7285" y="0.815186" width="556.38" height="520.215" filterUnits="userSpaceOnUse" color-interpolation-filters="sRGB">
<feFlood flood-opacity="0" result="BackgroundImageFix"/>
<feBlend mode="normal" in="SourceGraphic" in2="BackgroundImageFix" result="shape"/>
<feGaussianBlur stdDeviation="75" result="effect1_foregroundBlur_32_22"/>
</filter>
<filter id="filter1_f_32_22" x="77.2715" y="100.815" width="356.38" height="320.215" filterUnits="userSpaceOnUse" color-interpolation-filters="sRGB">
<feFlood flood-opacity="0" result="BackgroundImageFix"/>
<feBlend mode="normal" in="SourceGraphic" in2="BackgroundImageFix" result="shape"/>
<feGaussianBlur stdDeviation="25" result="effect1_foregroundBlur_32_22"/>
</filter>
<linearGradient id="paint0_linear_32_22" x1="330.859" y1="162.642" x2="330.859" y2="382.857" gradientUnits="userSpaceOnUse">
<stop stop-color="#FF97AA"/>
<stop offset="0.785" stop-color="#FF1E46"/>
</linearGradient>
<linearGradient id="paint1_linear_32_22" x1="319.032" y1="150.815" x2="319.032" y2="371.03" gradientUnits="userSpaceOnUse">
<stop stop-color="#FF97AA"/>
<stop offset="0.785" stop-color="#FF1E46"/>
</linearGradient>
<linearGradient id="paint2_linear_32_22" x1="319.032" y1="150.815" x2="319.032" y2="371.03" gradientUnits="userSpaceOnUse">
<stop stop-color="#FF97AA"/>
<stop offset="0.785" stop-color="#FF1E46"/>
</linearGradient>
<linearGradient id="paint3_linear_32_22" x1="319.032" y1="150.815" x2="319.032" y2="371.03" gradientUnits="userSpaceOnUse">
<stop stop-color="#FF97AA"/>
<stop offset="0.785" stop-color="#FF1E46"/>
</linearGradient>
</defs>
</svg>
