<svg width="522" height="474" viewBox="0 0 522 474" fill="none" xmlns="http://www.w3.org/2000/svg">
<path opacity="0.5" fill-rule="evenodd" clip-rule="evenodd" d="M376.482 188.753C366.807 205.51 343.278 219.095 323.928 219.095C312.904 219.095 305.615 214.686 303.172 207.793C302.874 207.918 302.572 208.034 302.266 208.141L217.958 237.346C217.655 237.451 217.355 237.543 217.06 237.624C216.379 240.016 215.304 242.522 213.814 245.102C212.324 247.683 210.505 250.189 208.424 252.581C208.626 252.662 208.819 252.754 209.001 252.859L259.586 282.064C259.769 282.17 259.938 282.287 260.091 282.412C270.493 275.519 282.873 271.11 293.897 271.11C313.247 271.11 321.09 284.695 311.415 301.452C301.74 318.21 278.21 331.794 258.861 331.794C239.511 331.794 231.668 318.21 241.342 301.452C242.832 298.871 244.651 296.366 246.732 293.974C246.53 293.893 246.337 293.8 246.155 293.695L195.571 264.49C195.387 264.384 195.219 264.268 195.066 264.143C184.664 271.036 172.283 275.445 161.26 275.445C141.91 275.445 134.067 261.86 143.742 245.102C153.417 228.345 176.946 214.76 196.296 214.76C207.32 214.76 214.609 219.169 217.052 226.062C217.349 225.937 217.652 225.821 217.958 225.715L302.266 196.51C302.569 196.404 302.869 196.312 303.164 196.231C303.845 193.839 304.92 191.333 306.41 188.753C316.085 171.995 339.614 158.41 358.964 158.41C378.314 158.41 386.157 171.995 376.482 188.753Z" fill="url(#paint0_linear_32_61)"/>
<path fill-rule="evenodd" clip-rule="evenodd" d="M367.472 180.742C357.797 197.5 334.267 211.084 314.917 211.084C303.894 211.084 296.605 206.675 294.162 199.783C293.864 199.908 293.562 200.024 293.255 200.13L208.948 229.335C208.644 229.44 208.344 229.533 208.049 229.613C207.368 232.006 206.294 234.511 204.804 237.092C203.314 239.673 201.495 242.178 199.414 244.571C199.616 244.651 199.809 244.744 199.991 244.849L250.575 274.054C250.759 274.16 250.927 274.276 251.08 274.402C261.483 267.509 273.863 263.1 284.886 263.1C304.236 263.1 312.079 276.684 302.404 293.442C292.729 310.199 269.2 323.784 249.85 323.784C230.5 323.784 222.657 310.199 232.332 293.442C233.822 290.861 235.641 288.356 237.722 285.963C237.52 285.883 237.327 285.79 237.145 285.685L186.56 256.48C186.377 256.374 186.208 256.258 186.055 256.132C175.653 263.025 163.273 267.434 152.249 267.434C132.9 267.434 125.056 253.85 134.731 237.092C144.406 220.335 167.936 206.75 187.286 206.75C198.309 206.75 205.598 211.159 208.041 218.052C208.339 217.926 208.641 217.81 208.948 217.704L293.255 188.499C293.559 188.394 293.859 188.301 294.154 188.221C294.835 185.829 295.909 183.323 297.399 180.742C307.074 163.985 330.604 150.4 349.954 150.4C369.303 150.4 377.147 163.985 367.472 180.742Z" fill="url(#paint1_linear_32_61)"/>
<g opacity="0.7" filter="url(#filter0_f_32_61)">
<path fill-rule="evenodd" clip-rule="evenodd" d="M367.472 180.742C357.797 197.5 334.267 211.084 314.917 211.084C303.894 211.084 296.605 206.675 294.162 199.783C293.864 199.908 293.562 200.024 293.255 200.13L208.948 229.335C208.644 229.44 208.344 229.533 208.049 229.613C207.368 232.006 206.294 234.511 204.804 237.092C203.314 239.673 201.495 242.178 199.414 244.571C199.616 244.651 199.809 244.744 199.991 244.849L250.575 274.054C250.759 274.16 250.927 274.276 251.08 274.402C261.483 267.509 273.863 263.1 284.886 263.1C304.236 263.1 312.079 276.684 302.404 293.442C292.729 310.199 269.2 323.784 249.85 323.784C230.5 323.784 222.657 310.199 232.332 293.442C233.822 290.861 235.641 288.356 237.722 285.963C237.52 285.883 237.327 285.79 237.145 285.685L186.56 256.48C186.377 256.374 186.208 256.258 186.055 256.132C175.653 263.025 163.273 267.434 152.249 267.434C132.9 267.434 125.056 253.85 134.731 237.092C144.406 220.335 167.936 206.75 187.286 206.75C198.309 206.75 205.598 211.159 208.041 218.052C208.339 217.926 208.641 217.81 208.948 217.704L293.255 188.499C293.559 188.394 293.859 188.301 294.154 188.221C294.835 185.829 295.909 183.323 297.399 180.742C307.074 163.985 330.604 150.4 349.954 150.4C369.303 150.4 377.147 163.985 367.472 180.742Z" fill="url(#paint2_linear_32_61)"/>
</g>
<g opacity="0.3" filter="url(#filter1_f_32_61)">
<path fill-rule="evenodd" clip-rule="evenodd" d="M367.472 180.742C357.797 197.5 334.267 211.084 314.917 211.084C303.894 211.084 296.605 206.675 294.162 199.783C293.864 199.908 293.562 200.024 293.255 200.13L208.948 229.335C208.644 229.44 208.344 229.533 208.049 229.613C207.368 232.006 206.294 234.511 204.804 237.092C203.314 239.673 201.495 242.178 199.414 244.571C199.616 244.651 199.809 244.744 199.991 244.849L250.575 274.054C250.759 274.16 250.927 274.276 251.08 274.402C261.483 267.509 273.863 263.1 284.886 263.1C304.236 263.1 312.079 276.684 302.404 293.442C292.729 310.199 269.2 323.784 249.85 323.784C230.5 323.784 222.657 310.199 232.332 293.442C233.822 290.861 235.641 288.356 237.722 285.963C237.52 285.883 237.327 285.79 237.145 285.685L186.56 256.48C186.377 256.374 186.208 256.258 186.055 256.132C175.653 263.025 163.273 267.434 152.249 267.434C132.9 267.434 125.056 253.85 134.731 237.092C144.406 220.335 167.936 206.75 187.286 206.75C198.309 206.75 205.598 211.159 208.041 218.052C208.339 217.926 208.641 217.81 208.948 217.704L293.255 188.499C293.559 188.394 293.859 188.301 294.154 188.221C294.835 185.829 295.909 183.323 297.399 180.742C307.074 163.985 330.604 150.4 349.954 150.4C369.303 150.4 377.147 163.985 367.472 180.742Z" fill="url(#paint3_linear_32_61)"/>
</g>
<defs>
<filter id="filter0_f_32_61" x="-19.4127" y="0.400024" width="541.028" height="473.384" filterUnits="userSpaceOnUse" color-interpolation-filters="sRGB">
<feFlood flood-opacity="0" result="BackgroundImageFix"/>
<feBlend mode="normal" in="SourceGraphic" in2="BackgroundImageFix" result="shape"/>
<feGaussianBlur stdDeviation="75" result="effect1_foregroundBlur_32_61"/>
</filter>
<filter id="filter1_f_32_61" x="80.5873" y="100.4" width="341.028" height="273.384" filterUnits="userSpaceOnUse" color-interpolation-filters="sRGB">
<feFlood flood-opacity="0" result="BackgroundImageFix"/>
<feBlend mode="normal" in="SourceGraphic" in2="BackgroundImageFix" result="shape"/>
<feGaussianBlur stdDeviation="25" result="effect1_foregroundBlur_32_61"/>
</filter>
<linearGradient id="paint0_linear_32_61" x1="293.897" y1="158.41" x2="293.897" y2="331.794" gradientUnits="userSpaceOnUse">
<stop stop-color="#FF97AA"/>
<stop offset="0.785" stop-color="#FF1E46"/>
</linearGradient>
<linearGradient id="paint1_linear_32_61" x1="284.886" y1="150.4" x2="284.886" y2="323.784" gradientUnits="userSpaceOnUse">
<stop stop-color="#FF97AA"/>
<stop offset="0.785" stop-color="#FF1E46"/>
</linearGradient>
<linearGradient id="paint2_linear_32_61" x1="284.886" y1="150.4" x2="284.886" y2="323.784" gradientUnits="userSpaceOnUse">
<stop stop-color="#FF97AA"/>
<stop offset="0.785" stop-color="#FF1E46"/>
</linearGradient>
<linearGradient id="paint3_linear_32_61" x1="284.886" y1="150.4" x2="284.886" y2="323.784" gradientUnits="userSpaceOnUse">
<stop stop-color="#FF97AA"/>
<stop offset="0.785" stop-color="#FF1E46"/>
</linearGradient>
</defs>
</svg>
