<svg width="511" height="478" viewBox="0 0 511 478" fill="none" xmlns="http://www.w3.org/2000/svg">
<path opacity="0.5" d="M201.931 314.979C194.894 327.167 200.598 337.047 214.672 337.047C228.746 337.047 245.859 327.167 252.896 314.979L278.379 270.841H329.344C343.418 270.841 360.531 260.961 367.568 248.773C374.605 236.584 368.901 226.704 354.827 226.704H303.862L329.344 182.567C336.381 170.378 330.677 160.498 316.603 160.498C302.529 160.498 285.416 170.378 278.379 182.567L252.896 226.704L201.931 226.704C187.857 226.704 170.744 236.584 163.707 248.773C156.67 260.961 162.374 270.841 176.448 270.841L227.413 270.841L201.931 314.979Z" fill="url(#paint0_linear_32_108)"/>
<path d="M192.189 305.237C185.153 317.425 190.857 327.306 204.931 327.306C219.004 327.306 236.118 317.425 243.155 305.237L268.638 261.1H319.603C333.677 261.1 350.79 251.219 357.827 239.031C364.864 226.843 359.159 216.963 345.086 216.963H294.12L319.603 172.825C326.64 160.637 320.935 150.757 306.862 150.757C292.788 150.757 275.674 160.637 268.638 172.825L243.155 216.963L192.189 216.963C178.116 216.963 161.002 226.843 153.965 239.031C146.929 251.219 152.633 261.1 166.707 261.1L217.672 261.1L192.189 305.237Z" fill="url(#paint1_linear_32_108)"/>
<g opacity="0.7" filter="url(#filter0_f_32_108)">
<path d="M192.189 305.237C185.153 317.425 190.857 327.306 204.931 327.306C219.004 327.306 236.118 317.425 243.155 305.237L268.638 261.1H319.603C333.677 261.1 350.79 251.219 357.827 239.031C364.864 226.843 359.159 216.963 345.086 216.963H294.12L319.603 172.825C326.64 160.637 320.935 150.757 306.862 150.757C292.788 150.757 275.674 160.637 268.638 172.825L243.155 216.963L192.189 216.963C178.116 216.963 161.002 226.843 153.965 239.031C146.929 251.219 152.633 261.1 166.707 261.1L217.672 261.1L192.189 305.237Z" fill="url(#paint2_linear_32_108)"/>
</g>
<g opacity="0.3" filter="url(#filter1_f_32_108)">
<path d="M192.189 305.237C185.153 317.425 190.857 327.306 204.931 327.306C219.004 327.306 236.118 317.425 243.155 305.237L268.638 261.1H319.603C333.677 261.1 350.79 251.219 357.827 239.031C364.864 226.843 359.159 216.963 345.086 216.963H294.12L319.603 172.825C326.64 160.637 320.935 150.757 306.862 150.757C292.788 150.757 275.674 160.637 268.638 172.825L243.155 216.963L192.189 216.963C178.116 216.963 161.002 226.843 153.965 239.031C146.929 251.219 152.633 261.1 166.707 261.1L217.672 261.1L192.189 305.237Z" fill="url(#paint3_linear_32_108)"/>
</g>
<defs>
<filter id="filter0_f_32_108" x="0.951324" y="0.756531" width="509.89" height="476.549" filterUnits="userSpaceOnUse" color-interpolation-filters="sRGB">
<feFlood flood-opacity="0" result="BackgroundImageFix"/>
<feBlend mode="normal" in="SourceGraphic" in2="BackgroundImageFix" result="shape"/>
<feGaussianBlur stdDeviation="75" result="effect1_foregroundBlur_32_108"/>
</filter>
<filter id="filter1_f_32_108" x="100.951" y="100.757" width="309.89" height="276.549" filterUnits="userSpaceOnUse" color-interpolation-filters="sRGB">
<feFlood flood-opacity="0" result="BackgroundImageFix"/>
<feBlend mode="normal" in="SourceGraphic" in2="BackgroundImageFix" result="shape"/>
<feGaussianBlur stdDeviation="25" result="effect1_foregroundBlur_32_108"/>
</filter>
<linearGradient id="paint0_linear_32_108" x1="316.603" y1="160.498" x2="316.603" y2="337.047" gradientUnits="userSpaceOnUse">
<stop stop-color="#FF97AA"/>
<stop offset="0.785" stop-color="#FF1E46"/>
</linearGradient>
<linearGradient id="paint1_linear_32_108" x1="306.862" y1="150.757" x2="306.862" y2="327.306" gradientUnits="userSpaceOnUse">
<stop stop-color="#FF97AA"/>
<stop offset="0.785" stop-color="#FF1E46"/>
</linearGradient>
<linearGradient id="paint2_linear_32_108" x1="306.862" y1="150.757" x2="306.862" y2="327.306" gradientUnits="userSpaceOnUse">
<stop stop-color="#FF97AA"/>
<stop offset="0.785" stop-color="#FF1E46"/>
</linearGradient>
<linearGradient id="paint3_linear_32_108" x1="306.862" y1="150.757" x2="306.862" y2="327.306" gradientUnits="userSpaceOnUse">
<stop stop-color="#FF97AA"/>
<stop offset="0.785" stop-color="#FF1E46"/>
</linearGradient>
</defs>
</svg>
