<svg width="86" height="30" viewBox="0 0 86 30" fill="none" xmlns="http://www.w3.org/2000/svg">
<rect x="1" y="0.5" width="84" height="29" rx="7" stroke="#50505D"/>
<path d="M24.2803 7H28.2266L25.8842 21.7541H18.899L16.3667 9.65574L14.4463 21.7541H10.5L12.8424 7H19.8276L22.36 19.1194L24.2803 7ZM46.6267 21.7541L48.9692 7H53.1266L50.784 21.7541H46.6267ZM68.0571 7H75.2954L72.9319 21.7541H68.9856L70.9271 9.5082L65.7779 21.7541H60.1856L58.9194 9.46604L56.9779 21.7541H53.0317L55.3741 7H62.5703L63.3933 19.1827L68.0571 7Z" fill="#50505D"/>
<path d="M31.9353 21.7541H27.7358L35.4807 7H41.7061L44.7871 21.7541H40.5665H31.9353Z" fill="#50505D"/>
</svg>
