<svg width="48" height="48" viewBox="0 0 48 48" fill="none" xmlns="http://www.w3.org/2000/svg">
<path fill-rule="evenodd" clip-rule="evenodd" d="M9.54573 23.4539C17.4555 20.0188 22.7211 17.7363 25.3652 16.6289C32.8908 13.4876 34.4728 12.9452 35.4897 12.9226C35.7157 12.9226 36.2129 12.9678 36.5519 13.239C36.8231 13.465 36.8909 13.7588 36.9361 13.9848C36.9813 14.2108 37.0265 14.6854 36.9813 15.0469C36.5745 19.3408 34.8117 29.7591 33.9078 34.5501C33.5236 36.5841 32.7778 37.2621 32.0546 37.3298C30.4727 37.4654 29.2749 36.2903 27.7608 35.2959C25.3652 33.7366 24.0319 32.7648 21.7042 31.228C19.0148 29.4653 20.755 28.4935 22.2917 26.9116C22.6985 26.5048 29.6365 20.177 29.7721 19.612C29.7947 19.5442 29.7947 19.273 29.6365 19.1374C29.4783 19.0018 29.2523 19.047 29.0715 19.0922C28.8229 19.1374 25.0263 21.6685 17.6363 26.663C16.5515 27.4088 15.5797 27.7703 14.6984 27.7477C13.7266 27.7251 11.8735 27.2054 10.4723 26.7534C8.77736 26.211 7.4214 25.9172 7.53439 24.968C7.60219 24.4708 8.28017 23.9737 9.54573 23.4539Z" fill="#50505D"/>
</svg>
