<svg width="48" height="48" viewBox="0 0 48 48" fill="none" xmlns="http://www.w3.org/2000/svg">
<path fill-rule="evenodd" clip-rule="evenodd" d="M38.127 12.3399C39.6523 12.7482 40.8511 13.9469 41.2593 15.4723C41.9972 18.2342 42.0002 24.0002 42.0002 24.0002C42.0002 24.0002 42.0002 29.7663 41.2593 32.5282C40.8511 34.0536 39.6523 35.2523 38.127 35.6605C35.3651 36.4014 24.2851 36.4014 24.2851 36.4014C24.2851 36.4014 13.2052 36.4014 10.4432 35.6605C8.91789 35.2523 7.71918 34.0536 7.31087 32.5282C6.57007 29.7663 6.57007 24.0002 6.57007 24.0002C6.57007 24.0002 6.57007 18.2342 7.31087 15.4723C7.71918 13.9469 8.91789 12.7482 10.4432 12.3399C13.2052 11.5991 24.2851 11.5991 24.2851 11.5991C24.2851 11.5991 35.3651 11.5991 38.127 12.3399ZM29.9431 24.0005L20.7385 29.3144V18.6865L29.9431 24.0005Z" fill="#50505D"/>
</svg>
